<svg xmlns="http://www.w3.org/2000/svg" width="48" height="48" fill="none" viewBox="0 0 48 48" id="apple-podcasts">
  <rect width="48" height="48" fill="url(#a)" rx="24"></rect>
  <path fill="#fff" d="M23.788 8.68908C16.0715 8.80759 9.72449 14.9966 9.43479 22.7131C9.18459 29.363 13.4247 35.0779 19.3503 37.0794C19.482 37.119 19.6137 37.0136 19.5874 36.8688C19.5084 36.3289 19.4162 35.7758 19.3372 35.2227C19.3108 35.0647 19.2055 34.9199 19.0607 34.854C14.4782 32.892 11.2783 28.2963 11.3968 22.9764C11.5417 16.3529 16.8748 10.9276 23.4983 10.6643C30.6749 10.3878 36.6005 16.1422 36.6005 23.253C36.6005 28.4544 33.4402 32.9183 28.9367 34.854C28.7787 34.9199 28.6733 35.0516 28.6602 35.2227C28.5812 35.789 28.5022 36.342 28.41 36.8688C28.3836 37.0004 28.5153 37.119 28.647 37.0794C34.4146 35.1306 38.5757 29.679 38.5757 23.2661C38.5757 15.1546 31.9259 8.57056 23.788 8.68908Z"></path>
  <path fill="#fff" d="M24.0513 13.5349C18.6919 13.5086 14.2806 17.8935 14.2675 23.2529C14.2543 26.6503 15.9925 29.6395 18.6261 31.3908C18.7446 31.4698 18.9158 31.3777 18.9026 31.2328C18.85 30.5217 18.8105 29.8502 18.7973 29.2313C18.7973 29.0996 18.7446 28.9811 18.6393 28.8889C17.0854 27.4009 16.1373 25.2808 16.2427 22.9501C16.4139 18.9602 19.64 15.7208 23.63 15.5365C28.0808 15.3258 31.7547 18.8811 31.7547 23.2925C31.7547 25.5047 30.8329 27.4931 29.3449 28.9021C29.2527 28.9942 29.2001 29.1127 29.1869 29.2444C29.1737 29.8633 29.1342 30.5349 29.0816 31.246C29.0684 31.3908 29.2396 31.483 29.3581 31.404C31.9917 29.6658 33.7167 26.6766 33.7167 23.2925C33.7299 17.9199 29.3976 13.5612 24.0513 13.5349Z"></path>
  <path fill="#fff" d="M23.9987 25.5179C25.8968 25.5179 27.4355 23.9792 27.4355 22.081 27.4355 20.1829 25.8968 18.6442 23.9987 18.6442 22.1006 18.6442 20.5618 20.1829 20.5618 22.081 20.5618 23.9792 22.1006 25.5179 23.9987 25.5179zM27.4355 28.4938C26.6981 26.9663 25.1443 26.7425 23.9987 26.7425 22.8531 26.7425 21.2992 26.9663 20.5618 28.4938 19.8112 30.0477 21.1939 38.6464 21.6943 39.476 22.0893 40.1344 22.8136 40.6875 23.9987 40.6875 25.1838 40.6875 25.9081 40.1476 26.3031 39.476 26.8035 38.6464 28.1861 30.0477 27.4355 28.4938z"></path>
  <defs>
    <linearGradient id="a" x1="23.95" x2="23.544" y1="48.61" gradientUnits="userSpaceOnUse">
      <stop stop-color="#822CBE"></stop>
      <stop offset="1" stop-color="#D772FB"></stop>
    </linearGradient>
  </defs>
</svg>
