<svg xmlns="http://www.w3.org/2000/svg" viewBox="0 0 24 24" width="24" height="24" color="#3c4650" fill="none">
    <path d="M2 10C2 8.34315 3.34315 7 5 7H19C20.6569 7 22 8.34315 22 10V18C22 19.6569 20.6569 21 19 21H5C3.34315 21 2 19.6569 2 18V10Z" stroke="#3c4650" stroke-width="1.5" stroke-linecap="round" stroke-linejoin="round"></path>
    <path d="M16 7V4.5C16 3.67157 15.3284 3 14.5 3H9.5C8.67157 3 8 3.67157 8 4.5V7" stroke="#3c4650" stroke-width="1.5" stroke-linecap="round" stroke-linejoin="round"></path>
    <path d="M6 11L6.65197 11.202C10.0851 12.266 13.9149 12.266 17.348 11.202L18 11M12 12V14" stroke="#3c4650" stroke-width="1.5" stroke-linecap="round" stroke-linejoin="round"></path>
</svg>